<svg width="20" height="20" viewBox="0 0 20 20" fill="none" xmlns="http://www.w3.org/2000/svg">
<path d="M10.0002 13.7502C12.0713 13.7502 13.7502 12.0713 13.7502 10.0002C13.7502 7.92918 12.0713 6.25024 10.0002 6.25024C7.92918 6.25024 6.25024 7.92918 6.25024 10.0002C6.25024 12.0713 7.92918 13.7502 10.0002 13.7502Z" stroke="#616161" stroke-width="1.5" stroke-linecap="round" stroke-linejoin="round"/>
<path d="M15.4224 6.30092C15.6073 6.57233 15.7715 6.85724 15.9136 7.15326L17.9407 8.27853C18.1876 9.41249 18.1884 10.5862 17.9432 11.7205L15.915 12.8464C15.7724 13.1422 15.6077 13.4269 15.4224 13.698L15.4615 16.0161C14.6029 16.7969 13.5868 17.3845 12.4818 17.7393L10.4927 16.5457C10.1652 16.5701 9.83638 16.5699 9.50894 16.545L7.52091 17.7378C6.41542 17.3847 5.39852 16.7985 4.5388 16.019L4.57784 13.6996C4.39299 13.4282 4.22879 13.1432 4.08664 12.8472L2.05958 11.722C1.81269 10.588 1.81184 9.41427 2.0571 8.27995L4.08528 7.15407C4.2279 6.85827 4.39255 6.57362 4.57783 6.3025L4.53881 3.98439C5.3974 3.20359 6.41345 2.61599 7.51843 2.26123L9.50756 3.45474C9.83504 3.43036 10.1639 3.43062 10.4913 3.45552L12.4794 2.26267C13.5848 2.61583 14.6017 3.20196 15.4615 3.98152L15.4224 6.30092Z" stroke="#616161" stroke-width="1.5" stroke-linecap="round" stroke-linejoin="round"/>
</svg>
