<svg width="20" height="20" viewBox="0 0 20 20" fill="none" xmlns="http://www.w3.org/2000/svg">
<path d="M1.875 17.5H18.125" stroke="#616161" stroke-width="1.5" stroke-linecap="round" stroke-linejoin="round"/>
<path d="M4.375 17.5V3.125C4.375 2.95924 4.44085 2.80027 4.55806 2.68306C4.67527 2.56585 4.83424 2.5 5 2.5H15C15.1658 2.5 15.3247 2.56585 15.4419 2.68306C15.5592 2.80027 15.625 2.95924 15.625 3.125V17.5" stroke="#616161" stroke-width="1.5" stroke-linecap="round" stroke-linejoin="round"/>
<path d="M12.1875 9.96875C12.2048 9.96875 12.2188 9.98274 12.2188 10C12.2188 10.0173 12.2048 10.0312 12.1875 10.0312C12.1702 10.0312 12.1562 10.0173 12.1562 10C12.1562 9.98274 12.1702 9.96875 12.1875 9.96875Z" fill="#616161" stroke="#616161" stroke-width="1.5"/>
</svg>
