<svg width="24" height="25" viewBox="0 0 24 25" fill="none" xmlns="http://www.w3.org/2000/svg">
<path d="M9 22H15" stroke="#052C47" stroke-width="1.5" stroke-linecap="round" stroke-linejoin="round"/>
<path d="M5.26904 10.7499C5.2678 9.86045 5.44262 8.97951 5.78343 8.1579C6.12424 7.33628 6.6243 6.59025 7.25477 5.9628C7.88525 5.33535 8.63368 4.83889 9.45693 4.50204C10.2802 4.16519 11.1619 3.99461 12.0514 4.00013C15.763 4.02772 18.7317 7.11275 18.7317 10.8347V11.4999C18.7317 14.8577 19.4342 16.8061 20.0529 17.871C20.1196 17.9848 20.1551 18.1142 20.1558 18.246C20.1565 18.3779 20.1224 18.5076 20.0569 18.6221C19.9915 18.7366 19.8971 18.8318 19.7831 18.8982C19.6691 18.9645 19.5397 18.9996 19.4078 18.9999H4.59222C4.46034 18.9996 4.33087 18.9645 4.21689 18.8981C4.1029 18.8318 4.00844 18.7366 3.94301 18.622C3.87759 18.5075 3.84352 18.3778 3.84425 18.2459C3.84498 18.114 3.88048 17.9846 3.94716 17.8709C4.56622 16.8059 5.26904 14.8575 5.26904 11.4999L5.26904 10.7499Z" stroke="#052C47" stroke-width="1.5" stroke-linecap="round" stroke-linejoin="round"/>
<circle cx="18" cy="5" r="4" fill="#CA3232" stroke="white" stroke-width="2"/>
</svg>
