<svg width="20" height="20" viewBox="0 0 20 20" fill="none" xmlns="http://www.w3.org/2000/svg">
<path d="M10.0002 13.7501C12.0713 13.7501 13.7502 12.0712 13.7502 10.0001C13.7502 7.92905 12.0713 6.25012 10.0002 6.25012C7.92918 6.25012 6.25024 7.92905 6.25024 10.0001C6.25024 12.0712 7.92918 13.7501 10.0002 13.7501Z" stroke="#1CB78D" stroke-width="1.5" stroke-linecap="round" stroke-linejoin="round"/>
<path d="M15.4225 6.30086C15.6074 6.57227 15.7716 6.85718 15.9137 7.1532L17.9408 8.27847C18.1877 9.41243 18.1885 10.5862 17.9433 11.7205L15.9151 12.8464C15.7725 13.1421 15.6078 13.4268 15.4226 13.6979L15.4616 16.016C14.603 16.7968 13.5869 17.3844 12.482 17.7392L10.4928 16.5457C10.1653 16.5701 9.8365 16.5698 9.50906 16.5449L7.52103 17.7378C6.41554 17.3846 5.39864 16.7985 4.53892 16.0189L4.57796 13.6995C4.39311 13.4281 4.22892 13.1432 4.08676 12.8472L2.05971 11.7219C1.81281 10.5879 1.81196 9.41421 2.05722 8.27989L4.0854 7.15401C4.22802 6.85821 4.39267 6.57356 4.57795 6.30244L4.53893 3.98433C5.39752 3.20352 6.41357 2.61593 7.51855 2.26117L9.50769 3.45468C9.83516 3.4303 10.164 3.43056 10.4914 3.45546L12.4795 2.26261C13.585 2.61577 14.6019 3.2019 15.4616 3.98146L15.4225 6.30086Z" stroke="#1CB78D" stroke-width="1.5" stroke-linecap="round" stroke-linejoin="round"/>
</svg>
